<?xml version="1.0" standalone="no"?>
<!DOCTYPE svg PUBLIC "-//W3C//DTD SVG 20010904//EN"
 "http://www.w3.org/TR/2001/REC-SVG-20010904/DTD/svg10.dtd">
<svg version="1.0" xmlns="http://www.w3.org/2000/svg"
 width="2021.000000pt" height="2048.000000pt" viewBox="0 0 2021.000000 2048.000000"
 preserveAspectRatio="xMidYMid meet">

<g transform="translate(0.000000,2048.000000) scale(0.100000,-0.100000)"
fill="#000000" stroke="none">
<path d="M9730 19220 c-91 -4 -172 -8 -181 -9 -23 -2 -129 -230 -173 -371 -78
-251 -100 -424 -93 -723 8 -327 58 -631 189 -1137 41 -157 42 -172 42 -310 0
-169 -13 -234 -114 -545 -221 -684 -286 -973 -297 -1302 -4 -101 -2 -173 3
-173 5 0 44 134 87 298 143 548 494 1890 683 2612 103 393 189 725 192 738 2
12 7 22 11 22 4 0 33 -102 66 -227 32 -126 136 -527 232 -893 95 -366 230
-881 299 -1145 69 -264 161 -615 204 -780 260 -993 438 -1672 556 -2125 74
-283 179 -688 235 -900 55 -211 101 -392 102 -401 1 -10 -246 -267 -623 -646
-731 -736 -792 -799 -765 -785 11 5 175 83 365 172 190 89 460 217 600 285
273 131 345 165 482 226 48 21 184 84 303 140 l214 101 718 -303 c1681 -707
1919 -807 1941 -813 12 -4 22 -11 22 -16 0 -5 -10 -12 -22 -16 -27 -8 -210
-84 -693 -289 -198 -84 -428 -181 -510 -215 -83 -34 -265 -110 -405 -170 -140
-59 -434 -183 -653 -275 l-397 -167 -898 422 c-493 233 -940 443 -992 467 -91
43 -94 43 -70 17 14 -16 279 -284 590 -597 470 -473 565 -573 564 -595 0 -15
-32 -135 -71 -267 -63 -213 -135 -463 -343 -1180 -32 -110 -105 -364 -164
-565 -109 -376 -284 -983 -406 -1405 -38 -132 -150 -519 -249 -860 -98 -341
-189 -657 -202 -702 -12 -46 -25 -83 -29 -83 -3 0 -40 120 -83 268 -42 147
-206 717 -366 1267 -159 550 -324 1119 -366 1265 -42 146 -96 333 -120 415
-24 83 -112 386 -195 675 -84 289 -195 671 -246 849 -52 179 -93 330 -92 337
2 7 266 279 588 604 677 685 600 605 575 592 -11 -5 -324 -153 -695 -327 -371
-174 -809 -380 -972 -457 l-298 -139 -242 101 c-134 56 -299 126 -368 155 -69
29 -334 141 -590 248 -256 108 -611 257 -790 332 -179 75 -354 147 -389 160
l-63 23 6 -42 c6 -38 3 -49 -28 -94 -97 -144 -139 -388 -102 -585 30 -156 82
-277 224 -521 88 -153 128 -235 175 -371 40 -113 73 -195 110 -275 36 -76 61
-226 53 -320 -12 -169 -163 -536 -311 -760 -65 -99 -263 -295 -400 -398 -108
-80 -311 -192 -445 -245 -128 -50 -246 -79 -399 -96 -130 -15 -163 -16 -215
-5 -33 7 -162 25 -286 40 -257 31 -340 29 -536 -10 -158 -32 -309 -76 -451
-132 -251 -99 -466 -208 -580 -295 l-53 -40 31 -57 c57 -104 151 -266 191
-328 21 -33 38 -63 38 -67 0 -3 13 -26 29 -49 16 -24 61 -92 100 -153 38 -60
74 -114 78 -120 5 -5 33 -46 62 -90 30 -44 68 -99 85 -121 17 -23 39 -53 48
-65 9 -13 45 -62 80 -108 35 -46 72 -96 83 -112 25 -34 240 -297 301 -368 103
-119 310 -347 320 -354 13 -8 25 21 44 108 6 28 22 79 37 115 177 450 480 655
902 611 183 -19 453 -97 761 -218 339 -134 557 -266 990 -598 578 -444 843
-588 1085 -588 114 0 191 21 436 118 374 149 591 172 999 104 337 -56 467
-106 1043 -397 476 -241 686 -323 964 -379 131 -26 366 -23 501 6 471 100
1101 447 1527 841 240 222 371 304 570 357 93 25 115 27 310 27 116 1 287 -5
382 -12 95 -6 321 -12 502 -12 182 0 377 -5 433 -11 207 -22 364 -79 491 -176
104 -80 233 -247 336 -436 l43 -78 61 53 c77 67 311 284 355 330 l33 35 -45
94 c-58 123 -137 246 -239 377 -93 120 -347 379 -482 493 -238 201 -684 498
-1032 688 -431 236 -1105 482 -1783 651 -115 29 -181 51 -219 73 -72 43 -204
167 -252 239 -83 122 -127 291 -136 528 -9 229 7 337 120 840 89 397 134 690
143 940 3 80 7 169 10 198 l5 52 49 0 c59 0 214 39 329 84 215 83 332 126 411
150 84 26 102 30 170 42 19 3 43 8 54 11 10 3 16 1 13 -4 -3 -5 9 -8 26 -7 18
2 42 -4 55 -12 12 -8 28 -12 35 -8 7 4 9 4 5 -1 -4 -4 2 -15 13 -24 11 -9 21
-30 23 -48 1 -18 4 -35 7 -38 3 -3 2 -31 -3 -62 -5 -32 -10 -69 -12 -83 -7
-51 -159 -515 -176 -535 -9 -11 -34 -91 -87 -285 -18 -69 -40 -147 -48 -175
-8 -27 -21 -95 -30 -150 -9 -55 -21 -126 -27 -157 -6 -35 -9 -136 -5 -265 4
-189 8 -219 35 -328 66 -260 157 -462 295 -652 92 -127 319 -372 409 -440 20
-15 83 -68 140 -118 115 -100 207 -173 283 -224 27 -19 64 -46 81 -60 18 -14
99 -72 180 -129 82 -57 223 -155 313 -218 91 -63 175 -120 187 -127 12 -7 37
-21 55 -31 19 -10 119 -76 222 -145 103 -69 205 -137 227 -151 141 -91 249
-166 275 -190 17 -15 69 -50 117 -79 48 -29 90 -57 94 -63 4 -5 27 -19 51 -30
25 -11 61 -34 81 -52 21 -18 62 -47 92 -65 30 -18 65 -42 77 -53 23 -22 34
-28 103 -66 23 -13 53 -35 66 -49 l23 -24 98 101 c54 56 98 106 98 112 0 5
-35 28 -77 51 -43 23 -160 99 -260 168 -235 161 -285 191 -758 461 -558 318
-548 312 -1045 664 -663 469 -730 518 -813 598 -238 228 -459 560 -541 813
-49 152 -56 209 -55 453 1 347 24 476 134 765 31 82 76 209 100 280 23 72 73
211 110 310 138 367 165 467 186 667 l5 58 72 21 c40 11 85 25 100 31 15 6 76
11 135 12 96 1 112 -2 154 -24 43 -22 48 -29 58 -73 15 -71 12 -289 -5 -387
-56 -321 -208 -643 -555 -1180 -144 -224 -212 -334 -250 -411 -132 -261 -116
-486 50 -694 78 -98 283 -270 665 -556 313 -236 514 -368 925 -614 346 -206
458 -274 577 -351 343 -223 618 -455 914 -774 74 -79 154 -166 179 -193 l45
-48 91 108 c176 210 548 711 567 764 3 9 43 74 90 145 46 71 105 162 130 203
l46 74 -36 41 c-21 23 -64 62 -98 87 -182 140 -387 424 -462 644 -55 159 -73
332 -54 507 20 183 58 292 125 360 55 56 85 68 210 80 172 16 190 11 477 -136
257 -133 334 -185 403 -273 23 -28 44 -52 47 -52 8 -1 31 56 111 284 106 303
130 376 177 545 24 85 52 182 62 215 61 197 176 795 180 937 1 49 -3 59 -54
135 -31 45 -66 101 -78 125 -12 24 -27 50 -34 58 -7 8 -37 74 -68 145 -94 222
-148 348 -177 410 -15 33 -31 71 -35 85 -4 14 -13 39 -21 55 -21 48 -80 235
-93 295 -29 144 -41 294 -41 535 0 157 -6 293 -15 365 -21 169 -81 385 -118
429 -8 9 -17 28 -21 43 -3 15 -12 33 -19 40 -7 7 -35 42 -62 78 -27 36 -68 85
-90 109 -44 48 -258 226 -375 312 -204 151 -253 280 -171 455 23 50 52 87 117
151 101 100 185 156 338 228 102 48 166 72 501 190 l120 43 -3 33 c-2 19 -7
39 -12 44 -4 6 -18 44 -30 85 -23 77 -73 213 -114 310 -13 30 -47 111 -76 180
-79 192 -403 839 -430 860 -3 3 -22 35 -42 72 -20 36 -48 85 -62 107 l-26 41
-41 -29 c-68 -50 -130 -65 -259 -65 -199 -1 -338 52 -461 174 -64 63 -85 92
-127 180 -68 138 -78 198 -92 530 -17 418 -31 559 -57 595 -11 17 -141 148
-287 293 l-267 263 -29 -28 c-19 -18 -30 -38 -30 -56 0 -17 -10 -35 -25 -49
-21 -18 -25 -31 -25 -75 0 -44 -4 -57 -25 -75 -23 -20 -25 -29 -25 -99 0 -57
-4 -82 -16 -93 -15 -16 -39 -13 -29 4 3 5 1 11 -4 15 -7 3 -8 -44 -6 -132 l5
-138 -27 55 c-39 81 -45 211 -18 405 5 35 81 336 100 391 5 18 -6 32 -67 85
-201 174 -491 401 -692 543 -295 209 -689 454 -795 496 l-53 20 -31 -26 c-127
-105 -499 -480 -746 -750 -179 -196 -353 -431 -451 -609 -18 -33 -38 -67 -45
-75 -14 -18 -97 -158 -148 -251 -86 -157 -112 -307 -68 -404 29 -65 70 -107
153 -156 45 -27 70 -50 79 -71 7 -16 35 -67 62 -112 50 -82 102 -186 118 -241
6 -16 14 -66 19 -109 23 -193 -70 -405 -288 -658 -105 -122 -237 -246 -502
-475 -194 -168 -397 -369 -492 -489 -31 -39 -63 -77 -70 -85 -8 -8 -24 -30
-37 -49 -14 -19 -35 -46 -48 -60 -13 -14 -38 -41 -56 -60 -43 -47 -97 -85 -97
-68 0 9 -3 8 -10 -2 -6 -10 -10 -11 -10 -3 0 7 -3 12 -7 11 -32 -8 -133 73
-133 106 0 9 -4 16 -8 16 -22 0 -181 418 -167 440 2 4 87 66 188 137 444 316
597 475 820 853 111 186 158 319 160 445 2 150 -39 244 -173 395 -153 172
-171 227 -151 455 26 292 95 699 171 1011 71 288 144 473 298 747 131 233 202
328 379 508 l163 166 -67 23 c-38 12 -72 26 -78 30 -5 4 -37 15 -70 25 -33 9
-73 23 -90 31 -16 7 -66 24 -110 38 -44 13 -114 36 -155 51 -107 38 -362 111
-450 129 -41 8 -98 22 -126 31 -47 14 -167 40 -359 79 -655 133 -1359 185
-2085 156z m6571 -4715 c35 -33 49 -54 49 -73 0 -20 18 -45 72 -97 54 -53 73
-78 78 -105 5 -31 9 -35 43 -41 65 -10 62 -31 -5 -38 -5 -1 -8 -5 -8 -10 0 -6
13 -6 33 0 22 6 39 6 54 -2 46 -25 34 -36 -65 -59 -53 -12 -110 -25 -127 -29
-97 -24 -277 0 -347 46 -40 27 -68 68 -68 100 0 32 45 115 133 245 47 70 89
138 94 150 7 21 8 21 11 -8 2 -23 17 -45 53 -79z m88 -3989 c290 -148 491
-821 340 -1146 -36 -77 -70 -116 -124 -141 -273 -126 -615 406 -592 921 10
211 81 354 195 391 44 14 125 3 181 -25z m289 -2337 c-2 -6 3 -13 10 -14 7 -2
8 -1 2 2 -28 13 10 23 92 23 l91 0 38 -37 c57 -56 53 -70 -50 -174 -49 -49
-94 -89 -100 -89 -6 0 -11 -6 -11 -14 0 -8 -10 -22 -22 -30 -22 -16 -22 -15
-39 69 -14 68 -48 184 -77 263 -3 8 7 12 32 12 21 0 35 -5 34 -11z"/>
<path d="M16256 14515 c-3 -8 0 -17 6 -21 6 -4 8 -3 4 4 -3 5 -1 12 6 14 8 3
9 6 1 11 -6 4 -13 0 -17 -8z"/>
<path d="M16237 14483 c-4 -3 -7 -15 -7 -25 0 -13 -4 -17 -12 -12 -7 4 -10 4
-6 -1 4 -4 0 -14 -10 -21 -14 -11 -15 -15 -3 -26 12 -11 13 -10 8 5 -4 11 -1
17 8 17 17 0 22 8 29 43 5 28 4 31 -7 20z"/>
<path d="M16172 14369 c-13 -5 -26 -18 -29 -29 -3 -11 -9 -20 -14 -20 -5 0 -9
-5 -9 -12 0 -6 -8 -21 -17 -32 -10 -12 -1 -5 20 14 21 19 35 40 32 48 -2 7 -1
11 4 8 4 -3 16 3 26 14 20 22 20 23 -13 9z"/>
<path d="M16087 14233 c3 -7 6 -13 8 -13 2 0 5 6 8 13 3 8 -1 14 -8 14 -7 0
-11 -6 -8 -14z"/>
<path d="M16070 14182 c0 -5 6 -15 14 -21 11 -9 15 -8 20 6 4 10 4 14 0 10 -4
-4 -13 -2 -21 4 -8 7 -13 8 -13 1z"/>
<path d="M16114 14149 c-4 -7 -3 -9 4 -5 5 3 13 0 15 -6 4 -9 6 -10 6 -1 1 17
-16 25 -25 12z"/>
<path d="M16170 14136 c0 -2 7 -9 15 -16 9 -7 15 -8 15 -2 0 5 -7 12 -15 16
-8 3 -15 4 -15 2z"/>
<path d="M16498 14133 c7 -3 16 -2 19 1 4 3 -2 6 -13 5 -11 0 -14 -3 -6 -6z"/>
<path d="M16210 14120 c0 -4 9 -10 20 -13 11 -3 20 -2 20 3 0 4 -9 10 -20 13
-11 3 -20 2 -20 -3z"/>
<path d="M16406 14120 c-16 -5 -33 -7 -38 -4 -4 3 -8 0 -8 -6 0 -8 11 -9 33
-4 17 4 37 7 44 7 7 0 10 4 7 9 -3 4 -6 8 -7 7 -1 0 -15 -5 -31 -9z"/>
<path d="M16280 14109 c0 -5 11 -9 25 -9 14 0 25 2 25 4 0 2 -11 6 -25 8 -14
3 -25 1 -25 -3z"/>
<path d="M16690 8120 c0 -5 5 -10 11 -10 5 0 7 5 4 10 -3 6 -8 10 -11 10 -2 0
-4 -4 -4 -10z"/>
<path d="M16700 8090 c0 -5 5 -10 10 -10 6 0 10 5 10 10 0 6 -4 10 -10 10 -5
0 -10 -4 -10 -10z"/>
<path d="M16710 8056 c0 -2 7 -9 15 -16 13 -11 14 -10 9 4 -5 14 -24 23 -24
12z"/>
<path d="M16725 8010 c3 -5 8 -10 11 -10 2 0 4 5 4 10 0 6 -5 10 -11 10 -5 0
-7 -4 -4 -10z"/>
<path d="M16734 7977 c3 -10 6 -25 6 -33 0 -8 4 -14 9 -14 12 0 9 20 -8 45
-11 17 -12 17 -7 2z"/>
<path d="M16750 7910 c0 -5 5 -10 11 -10 5 0 7 5 4 10 -3 6 -8 10 -11 10 -2 0
-4 -4 -4 -10z"/>
<path d="M7675 18904 c-235 -56 -645 -191 -949 -313 -267 -107 -793 -354 -876
-410 -14 -10 -70 -42 -125 -71 -115 -61 -319 -179 -438 -252 -45 -28 -94 -58
-109 -67 -34 -19 -34 -20 -4 -79 89 -178 129 -448 107 -712 -23 -261 -70 -440
-170 -645 -78 -158 -160 -272 -306 -423 -325 -338 -785 -616 -1297 -785 -211
-70 -447 -117 -590 -117 -85 0 -319 -32 -409 -55 -35 -9 -70 -14 -80 -12 -17
4 -49 -43 -123 -178 -9 -16 -26 -46 -38 -65 -32 -55 -103 -189 -203 -388 l-93
-182 28 -30 c19 -21 38 -30 59 -30 22 0 35 -7 47 -25 12 -18 25 -25 50 -25 25
0 38 -7 50 -25 14 -22 23 -25 75 -25 51 0 61 -3 75 -25 15 -23 22 -25 100 -25
78 0 85 -2 100 -25 16 -25 18 -25 160 -25 97 0 145 -4 150 -12 5 -7 3 -8 -6
-3 -8 5 -11 4 -6 -3 4 -6 13 -9 21 -6 8 4 12 10 9 15 -3 5 25 9 63 9 50 0 64
-3 53 -11 -133 -90 -516 -275 -695 -334 -201 -67 -456 -88 -562 -47 -38 14
-55 17 -61 8 -27 -37 -91 -219 -267 -766 -76 -234 -192 -752 -249 -1115 -59
-369 -110 -901 -104 -1071 3 -77 3 -78 33 -86 48 -14 175 -11 271 7 315 59
789 197 1064 310 116 48 324 156 427 222 l28 18 -27 -35 c-59 -75 -122 -175
-144 -229 -42 -102 -26 -263 38 -383 69 -130 271 -308 506 -447 57 -34 122
-76 145 -95 37 -30 132 -93 332 -221 33 -22 98 -60 145 -85 256 -141 258 -142
548 -425 170 -165 222 -230 274 -341 26 -55 30 -76 30 -147 0 -93 -37 -290
-77 -412 -120 -362 -358 -585 -820 -769 -194 -77 -400 -133 -750 -205 -165
-33 -358 -77 -430 -96 -396 -106 -718 -176 -917 -200 -32 -3 -58 -11 -58 -17
0 -12 73 -179 95 -218 12 -22 24 -26 87 -33 111 -13 364 6 518 38 14 3 52 10
85 15 69 11 390 82 610 135 83 19 227 54 320 76 230 55 483 125 564 155 36 14
97 36 135 50 183 64 446 214 597 340 260 217 441 522 489 827 17 106 7 337
-19 438 -57 220 -171 401 -395 624 -171 171 -277 251 -706 540 -267 180 -308
211 -410 315 -131 135 -165 203 -164 335 1 113 43 194 161 312 81 80 106 98
211 151 66 33 141 67 168 75 27 9 81 27 119 41 117 41 353 76 518 76 231 0
384 -35 623 -143 87 -39 269 -139 299 -165 10 -8 28 -20 135 -93 112 -76 134
-104 133 -179 0 -51 -4 -61 -46 -102 l-37 -37 82 33 c215 85 518 212 518 216
0 3 -46 23 -102 45 -124 48 -371 168 -453 220 -184 116 -297 200 -492 362 -70
58 -158 126 -194 149 -145 94 -337 146 -624 168 -27 2 47 2 165 1 256 -4 369
-24 625 -109 254 -85 427 -163 660 -298 155 -91 289 -157 397 -198 47 -17 95
-40 106 -50 10 -10 32 -25 48 -33 37 -19 72 -67 87 -118 l12 -39 195 79 c107
43 269 110 360 149 91 38 274 115 408 171 l242 102 233 -109 c127 -60 340
-158 472 -218 132 -60 242 -112 245 -115 3 -4 106 -54 230 -112 124 -57 268
-125 320 -150 52 -24 169 -79 260 -122 91 -42 179 -84 195 -92 35 -18 40 -22
-776 801 -463 467 -603 613 -601 630 2 19 101 398 327 1261 130 497 287 1117
283 1121 -2 1 -21 -35 -41 -82 -39 -87 -51 -106 -99 -155 -27 -27 -87 -47
-106 -35 -6 3 -12 1 -14 -6 -3 -8 -12 -2 -22 15 -10 15 -25 27 -32 27 -8 0
-14 4 -14 8 0 5 -8 17 -19 28 -10 11 -24 37 -30 57 -7 20 -16 37 -20 37 -31 0
-49 290 -26 400 22 102 84 301 100 316 7 8 16 24 20 37 7 27 68 164 100 227
13 25 42 92 64 150 23 58 48 119 56 135 7 17 19 50 25 75 7 24 24 69 40 100
27 54 46 116 41 134 -1 5 3 12 9 16 7 4 13 24 15 45 2 21 9 41 15 45 5 3 17
41 25 83 8 42 23 102 34 134 22 68 29 105 41 233 5 52 14 118 20 145 16 72 24
585 11 660 -6 33 -20 119 -30 190 -10 72 -29 162 -41 200 -11 39 -28 95 -37
125 -9 30 -20 59 -25 65 -4 5 -8 15 -8 23 0 36 -154 326 -222 418 -198 270
-412 472 -653 619 -36 22 -80 50 -98 62 -67 46 -287 153 -314 152 -16 -1 -55
-8 -88 -15z m-1103 -1051 c164 -173 250 -351 278 -573 15 -127 12 -458 -5
-575 -42 -279 -165 -531 -427 -877 -107 -141 -217 -260 -218 -236 0 9 22 38
50 65 36 34 50 56 50 75 0 16 10 37 25 50 14 13 26 36 27 51 1 15 8 27 16 27
7 0 10 4 7 10 -3 5 3 15 14 21 10 7 17 19 14 26 -3 7 0 13 6 13 6 0 11 5 11
11 0 5 -4 7 -10 4 -6 -4 -10 8 -10 29 0 26 7 42 25 58 21 18 25 31 25 75 0 44
4 57 25 75 21 18 25 31 25 75 0 44 4 57 25 75 24 20 25 27 25 125 0 98 1 104
25 125 l25 22 0 507 0 507 -25 16 c-22 14 -25 24 -25 71 0 30 5 57 12 61 7 5
9 2 6 -8 -7 -17 47 -83 57 -68 3 5 1 10 -5 10 -6 0 -8 6 -4 13 4 6 4 9 -1 5
-12 -11 -35 11 -35 34 0 10 -7 21 -15 24 -8 4 -15 14 -15 24 0 10 -11 25 -25
34 -17 11 -25 26 -25 46 0 17 4 30 8 30 5 0 34 -26 64 -57z m-1116 -3175 c-24
-63 -55 -137 -69 -164 -98 -194 -337 -338 -647 -390 -87 -14 -137 -16 -295
-10 -198 7 -330 22 -213 25 43 1 60 5 70 20 13 18 66 42 55 24 -4 -6 8 -10 25
-11 24 -1 28 2 18 8 -12 8 -9 10 11 10 15 0 35 11 47 25 14 16 32 25 50 25 18
0 37 9 50 25 14 16 32 25 50 25 18 0 37 9 50 25 18 21 31 25 75 25 44 0 57 4
75 25 13 15 33 25 49 25 20 0 41 14 76 50 35 36 56 50 76 50 17 0 36 10 49 25
13 15 33 25 49 25 20 0 41 14 76 50 34 36 56 50 75 50 19 0 41 15 76 50 34 37
53 49 66 45 13 -4 31 5 56 29 21 20 39 34 41 32 2 -2 -16 -55 -41 -118z
m-1043 -3005 c-13 -2 -33 -2 -45 0 -13 2 -3 4 22 4 25 0 35 -2 23 -4z m-106
-9 c-3 -3 -12 -4 -19 -1 -8 3 -5 6 6 6 11 1 17 -2 13 -5z m-390 -80 c-3 -3
-12 -4 -19 -1 -8 3 -5 6 6 6 11 1 17 -2 13 -5z m-112 -34 c-11 -5 -27 -9 -35
-9 -9 0 -8 4 5 9 11 5 27 9 35 9 9 0 8 -4 -5 -9z m5095 -465 c20 -24 -83 -144
-115 -132 -20 8 -37 77 -23 94 6 7 7 13 2 14 -5 0 9 9 31 19 45 20 90 23 105
5z"/>
<path d="M6635 17670 c-3 -5 -1 -10 4 -10 6 0 11 5 11 10 0 6 -2 10 -4 10 -3
0 -8 -4 -11 -10z"/>
<path d="M6658 17638 c-4 -8 3 -20 13 -27 11 -6 17 -15 14 -20 -2 -5 2 -14 10
-21 8 -7 13 -16 10 -20 -3 -4 3 -16 13 -27 9 -10 14 -14 10 -8 -3 5 -6 12 -6
15 2 14 -15 50 -23 50 -5 0 -8 3 -7 8 1 4 -5 20 -13 36 -12 20 -17 24 -21 14z"/>
<path d="M6730 17480 c0 -5 5 -10 10 -10 6 0 10 5 10 10 0 6 -4 10 -10 10 -5
0 -10 -4 -10 -10z"/>
<path d="M6750 17405 c0 -8 5 -15 10 -15 6 0 10 7 10 15 0 8 -4 15 -10 15 -5
0 -10 -7 -10 -15z"/>
<path d="M6770 17335 c0 -8 4 -15 10 -15 5 0 7 7 4 15 -4 8 -8 15 -10 15 -2 0
-4 -7 -4 -15z"/>
<path d="M6776 17302 c-2 -4 -1 -14 5 -22 7 -12 9 -10 9 8 0 23 -5 28 -14 14z"/>
<path d="M6780 17241 c0 -6 5 -13 10 -16 6 -3 10 1 10 9 0 9 -4 16 -10 16 -5
0 -10 -4 -10 -9z"/>
<path d="M6787 17186 c-3 -8 -2 -27 3 -43 7 -25 8 -24 8 15 -1 45 -3 50 -11
28z"/>
<path d="M6791 17094 c0 -11 3 -14 6 -6 3 7 2 16 -1 19 -3 4 -6 -2 -5 -13z"/>
<path d="M6791 16994 c0 -11 3 -14 6 -6 3 7 2 16 -1 19 -3 4 -6 -2 -5 -13z"/>
<path d="M6791 16954 c0 -11 3 -14 6 -6 3 7 2 16 -1 19 -3 4 -6 -2 -5 -13z"/>
<path d="M6792 16880 c0 -14 2 -19 5 -12 2 6 2 18 0 25 -3 6 -5 1 -5 -13z"/>
<path d="M6771 16733 c0 -5 4 -17 9 -28 8 -17 8 -16 7 8 -1 15 -5 27 -9 27 -4
0 -8 -3 -7 -7z"/>
<path d="M6765 16650 c3 -5 8 -10 11 -10 2 0 4 5 4 10 0 6 -5 10 -11 10 -5 0
-7 -4 -4 -10z"/>
<path d="M6755 16600 c-3 -5 -1 -10 4 -10 6 0 11 5 11 10 0 6 -2 10 -4 10 -3
0 -8 -4 -11 -10z"/>
<path d="M6735 16530 c-3 -5 -1 -10 4 -10 6 0 11 5 11 10 0 6 -2 10 -4 10 -3
0 -8 -4 -11 -10z"/>
<path d="M6706 16446 c6 -15 4 -17 -7 -11 -8 4 -11 4 -6 0 4 -5 0 -19 -8 -32
-14 -21 -14 -23 1 -23 10 0 14 3 11 7 -4 3 0 17 9 31 12 18 13 27 4 36 -8 8
-9 6 -4 -8z"/>
<path d="M6667 16352 c-20 -21 -22 -32 -6 -32 5 0 7 5 4 10 -3 6 -2 10 3 10 6
0 12 7 16 15 7 20 3 19 -17 -3z"/>
<path d="M6628 16283 c7 -3 16 -2 19 1 4 3 -2 6 -13 5 -11 0 -14 -3 -6 -6z"/>
<path d="M6600 16235 c-10 -12 -10 -15 3 -15 8 0 17 7 21 15 3 8 2 15 -3 15
-5 0 -14 -7 -21 -15z"/>
<path d="M6565 16150 c-4 -6 -10 -8 -15 -5 -4 3 -10 -2 -14 -10 -8 -22 17 -18
32 5 7 11 10 20 8 20 -3 0 -8 -5 -11 -10z"/>
<path d="M6501 16077 c-1 -21 21 -18 27 4 3 12 2 12 -6 0 -8 -11 -10 -11 -15
0 -4 10 -6 8 -6 -4z"/>
<path d="M6485 16040 c-16 -7 -17 -9 -3 -9 9 -1 20 4 23 9 7 11 7 11 -20 0z"/>
<path d="M6455 16010 c-3 -5 -4 -14 0 -19 3 -6 -3 -15 -12 -21 -10 -6 -12 -10
-4 -7 8 2 19 12 25 23 6 10 16 22 21 26 6 5 3 8 -7 8 -9 0 -20 -4 -23 -10z"/>
<path d="M5385 14700 c-3 -5 -2 -10 4 -10 5 0 13 5 16 10 3 6 2 10 -4 10 -5 0
-13 -4 -16 -10z"/>
<path d="M5354 14623 c-9 -21 -17 -44 -18 -51 -1 -8 -9 -18 -17 -23 -11 -7
-11 -9 4 -9 9 0 17 5 17 10 0 21 2 25 16 42 9 9 16 22 18 30 1 7 5 19 9 26 5
7 4 12 -2 12 -6 0 -18 -17 -27 -37z"/>
<path d="M5225 14425 c-19 -16 -24 -25 -15 -25 13 0 13 -1 0 -10 -8 -5 -12
-11 -9 -14 2 -3 22 13 42 34 41 44 29 53 -18 15z"/>
<path d="M5163 14373 c4 -3 -11 -14 -33 -24 -23 -10 -40 -25 -40 -34 0 -9 5
-13 10 -10 6 4 8 10 5 15 -3 5 3 8 12 7 23 -1 75 32 67 44 -3 5 -10 9 -16 9
-6 0 -8 -3 -5 -7z"/>
<path d="M5067 14313 c-10 -9 -9 -23 1 -23 5 0 9 7 9 15 0 17 -1 18 -10 8z"/>
<path d="M5013 14283 c-13 -8 -23 -19 -23 -24 0 -14 24 0 38 21 14 24 14 24
-15 3z"/>
<path d="M4965 14260 c-3 -5 -1 -10 4 -10 6 0 11 5 11 10 0 6 -2 10 -4 10 -3
0 -8 -4 -11 -10z"/>
<path d="M4917 14243 c-13 -12 -7 -25 6 -14 8 6 17 8 20 4 4 -3 7 -1 7 5 0 13
-22 16 -33 5z"/>
<path d="M4855 14219 c-4 -6 -13 -8 -21 -5 -8 3 -14 0 -14 -5 0 -7 9 -9 23 -5
12 4 27 8 34 10 23 4 26 16 5 16 -11 0 -24 -5 -27 -11z"/>
<path d="M4770 14199 c0 -5 5 -7 10 -4 6 3 10 8 10 11 0 2 -4 4 -10 4 -5 0
-10 -5 -10 -11z"/>
<path d="M4710 14190 c0 -5 5 -10 11 -10 5 0 7 5 4 10 -3 6 -8 10 -11 10 -2 0
-4 -4 -4 -10z"/>
<path d="M4620 14180 c-6 -4 7 -6 29 -6 22 1 42 3 44 6 8 8 -60 8 -73 0z"/>
<path d="M4476 14168 c3 -4 33 -8 66 -8 34 0 59 2 56 5 -9 9 -127 12 -122 3z"/>
<path d="M9938 17409 c-10 -5 -18 -17 -18 -25 0 -17 -114 -537 -235 -1074 -46
-206 -116 -519 -155 -695 -39 -176 -244 -1098 -456 -2049 -344 -1550 -383
-1731 -370 -1750 7 -12 221 -248 475 -526 254 -278 513 -560 574 -628 62 -68
120 -128 129 -133 23 -12 47 -1 52 25 3 11 7 437 11 946 3 509 10 1373 15
1920 36 3701 38 3979 19 3991 -17 11 -20 11 -41 -2z m-27 -1491 c-13 -1236
-41 -4608 -41 -5003 l-1 -260 -57 61 c-238 254 -1036 1123 -1040 1133 -1 4
151 695 337 1536 187 842 381 1719 431 1950 50 231 104 474 120 540 16 66 59
260 95 430 37 171 86 398 111 505 24 107 44 199 44 204 0 5 3 7 6 3 3 -3 1
-497 -5 -1099z"/>
<path d="M10181 17411 c-19 -12 -18 -205 19 -3976 5 -550 12 -1418 16 -1930 3
-511 7 -940 10 -951 5 -26 29 -37 52 -25 9 5 69 67 132 136 190 209 453 497
671 735 325 355 360 394 375 416 13 19 -22 183 -341 1620 -542 2444 -562 2536
-606 2729 -88 389 -251 1123 -260 1175 -15 75 -32 94 -68 71z m148 -766 c45
-203 93 -424 107 -490 14 -66 37 -166 50 -221 13 -56 89 -398 168 -760 80
-363 278 -1257 441 -1988 162 -732 294 -1333 293 -1337 -4 -10 -811 -889
-1040 -1133 l-57 -61 -1 233 c0 362 -29 3871 -40 4985 -11 1133 -11 1152 -6
1146 2 -2 41 -170 85 -374z"/>
<path d="M16114 16882 c4 -7 2 -12 -4 -12 -6 0 -8 -4 -5 -10 3 -5 1 -10 -6
-10 -7 0 -9 -3 -6 -7 4 -3 2 -12 -4 -19 -7 -8 -6 -14 2 -20 8 -4 9 -3 5 4 -4
7 -3 12 1 12 15 0 33 59 21 67 -7 3 -8 1 -4 -5z"/>
<path d="M16052 16721 c-17 -46 -15 -60 4 -33 8 12 14 32 12 45 -3 19 -5 17
-16 -12z"/>
<path d="M16028 16635 c-4 -20 -2 -23 8 -14 7 6 10 17 7 25 -7 20 -10 18 -15
-11z"/>
<path d="M16013 16540 c1 -21 10 -18 13 5 1 8 -2 15 -6 15 -5 0 -8 -9 -7 -20z"/>
<path d="M9001 14264 c0 -11 3 -14 6 -6 3 7 2 16 -1 19 -3 4 -6 -2 -5 -13z"/>
<path d="M2833 13855 c0 -8 4 -12 9 -9 5 3 6 10 3 15 -9 13 -12 11 -12 -6z"/>
<path d="M2695 13789 c-4 -6 -4 -13 -1 -16 3 -4 6 -1 6 6 0 7 5 9 12 5 7 -4 8
-3 4 4 -9 15 -13 15 -21 1z"/>
<path d="M2640 13759 c0 -5 5 -7 10 -4 6 3 10 8 10 11 0 2 -4 4 -10 4 -5 0
-10 -5 -10 -11z"/>
<path d="M2597 13754 c-4 -4 -4 -10 -1 -15 6 -10 34 0 34 12 0 10 -24 12 -33
3z"/>
<path d="M2534 13716 c-3 -9 -13 -12 -22 -9 -13 4 -14 3 -6 -6 13 -15 41 -5
41 14 0 19 -6 19 -13 1z"/>
<path d="M2476 13692 c-3 -5 1 -9 9 -9 8 0 12 4 9 9 -3 4 -7 8 -9 8 -2 0 -6
-4 -9 -8z"/>
<path d="M2408 13658 c-13 -13 -16 -17 -7 -10 10 8 22 11 27 8 5 -3 9 1 9 9 0
19 -2 19 -29 -7z"/>
<path d="M2316 13622 c-3 -5 1 -9 9 -9 8 0 12 4 9 9 -3 4 -7 8 -9 8 -2 0 -6
-4 -9 -8z"/>
<path d="M2256 13603 c-8 -8 -13 -10 -44 -12 -10 0 -27 -8 -38 -16 -17 -12
-12 -12 35 0 54 14 68 21 59 30 -2 3 -8 2 -12 -2z"/>
<path d="M1720 13570 c0 -5 7 -10 15 -10 8 0 15 5 15 10 0 6 -7 10 -15 10 -8
0 -15 -4 -15 -10z"/>
<path d="M2085 13560 c-3 -5 -1 -10 4 -10 6 0 11 5 11 10 0 6 -2 10 -4 10 -3
0 -8 -4 -11 -10z"/>
<path d="M1780 13550 c0 -5 7 -7 15 -4 8 4 15 8 15 10 0 2 -7 4 -15 4 -8 0
-15 -4 -15 -10z"/>
<path d="M1836 13538 c7 -12 44 -10 44 2 0 5 -11 9 -24 8 -14 -1 -22 -6 -20
-10z"/>
<path d="M1920 13542 c0 -4 10 -9 22 -9 18 -2 20 0 8 7 -18 12 -30 13 -30 2z"/>
<path d="M7420 11041 c-201 -80 -477 -192 -615 -248 -137 -55 -353 -142 -480
-193 -679 -274 -660 -265 -660 -291 l0 -24 185 -6 c102 -4 1018 -10 2036 -13
1644 -6 1852 -6 1863 8 25 30 3 52 -97 96 -53 23 -140 62 -192 85 -52 24 -255
114 -450 200 -195 86 -545 242 -776 346 -232 104 -428 189 -435 188 -8 -1
-178 -67 -379 -148z m662 -52 c150 -66 334 -148 408 -181 74 -33 241 -107 370
-165 129 -58 307 -137 395 -178 88 -40 192 -87 230 -105 l70 -31 -390 6 c-214
3 -1042 5 -1838 6 -797 0 -1446 3 -1442 7 3 4 174 72 378 153 205 80 631 250
947 377 316 126 580 230 587 231 6 1 135 -53 285 -120z"/>
<path d="M12150 11101 c-384 -174 -689 -310 -965 -431 -839 -370 -809 -354
-773 -397 12 -15 127 -15 1308 -10 712 4 1621 8 2020 8 428 1 732 5 743 11 25
13 18 49 -13 65 -55 27 -2102 843 -2115 843 -5 0 -98 -40 -205 -89z m1164
-370 l949 -379 -244 -6 c-134 -3 -954 -7 -1822 -9 l-1579 -3 49 23 c107 50
440 200 823 371 782 349 855 381 865 381 6 1 437 -170 959 -378z"/>
<path d="M6960 10150 c-701 -3 -1281 -9 -1287 -13 -7 -5 -13 -17 -13 -27 0
-28 -169 43 1285 -540 457 -183 837 -335 847 -337 9 -3 204 79 435 182 230
103 585 261 788 352 730 323 734 326 741 345 3 11 0 25 -6 33 -13 16 -205 16
-2790 5z m2565 -74 c-16 -8 -66 -29 -110 -49 -44 -19 -136 -60 -205 -92 -467
-213 -1407 -625 -1420 -622 -8 2 -310 122 -670 267 -360 144 -781 311 -935
372 -154 60 -284 113 -288 118 -5 4 706 8 1579 9 874 1 1590 4 1593 7 2 2 113
4 245 4 211 -1 237 -2 211 -14z"/>
<path d="M10412 10147 c-31 -37 -13 -49 283 -180 160 -71 598 -266 974 -434
376 -167 691 -303 700 -300 27 8 2033 810 2096 839 35 15 45 52 18 66 -11 5
-309 10 -723 11 -388 0 -1297 4 -2020 8 -1199 5 -1316 5 -1328 -10z m3697 -75
l154 -7 -164 -64 c-90 -35 -513 -204 -939 -374 -426 -170 -782 -311 -791 -314
-15 -4 -1271 549 -1702 750 l-48 22 1668 -3 c917 -2 1737 -7 1822 -10z"/>
<path d="M9328 9300 c-306 -305 -528 -534 -528 -545 0 -9 45 -185 101 -389 55
-204 165 -609 244 -901 266 -979 573 -2119 610 -2260 20 -77 61 -228 90 -335
29 -107 63 -235 75 -285 12 -49 26 -98 31 -107 12 -22 57 -24 65 -3 6 14 -22
1634 -46 2720 -5 237 -17 826 -25 1310 -9 484 -19 979 -23 1100 l-7 220 -30 1
c-27 0 -90 -59 -557 -526z m526 108 c12 -555 26 -1265 41 -2083 9 -451 22
-1144 30 -1540 15 -720 17 -988 8 -950 -3 11 -32 117 -64 235 -61 223 -493
1814 -808 2983 -100 368 -181 674 -181 680 0 12 950 967 961 967 4 0 10 -132
13 -292z"/>
<path d="M10246 9822 c-4 -7 -16 -531 -36 -1612 -6 -300 -15 -759 -20 -1020
-6 -261 -14 -704 -20 -985 -5 -280 -15 -781 -21 -1112 -6 -331 -9 -609 -6
-618 9 -21 54 -19 66 3 5 9 19 58 31 107 12 50 46 178 75 285 30 107 83 305
119 440 58 220 203 757 755 2796 94 346 171 639 171 650 0 12 -190 208 -532
546 -512 507 -562 552 -582 520z m559 -602 l479 -479 -21 -78 c-11 -43 -132
-490 -268 -993 -136 -503 -282 -1045 -325 -1205 -43 -159 -115 -425 -160 -590
-91 -337 -255 -937 -275 -1005 -12 -44 -13 -41 -14 75 -1 66 6 444 14 840 8
396 21 1089 30 1540 14 803 28 1497 41 2083 3 160 9 292 13 292 3 0 222 -216
486 -480z"/>
<path d="M4925 3703 c34 -33 386 -288 461 -335 331 -204 566 -271 1049 -298
505 -28 667 -98 1044 -450 356 -332 510 -367 1110 -247 l163 32 -153 1 c-327
2 -512 64 -885 295 -388 241 -553 308 -935 383 -74 14 -206 40 -294 57 -308
60 -469 117 -770 271 -382 196 -466 236 -560 263 -92 27 -249 46 -230 28z"/>
<path d="M14475 3061 c243 -115 413 -263 453 -395 l17 -54 39 33 40 33 -34 69
c-23 48 -56 90 -110 145 -114 112 -262 180 -440 201 -44 6 -43 5 35 -32z"/>
<path d="M9775 2485 c130 -27 219 -58 475 -165 230 -95 377 -144 502 -166 136
-24 392 -14 548 20 228 50 227 51 -11 51 -284 0 -380 18 -862 161 -246 72
-435 106 -667 118 l-95 5 110 -24z"/>
</g>
</svg>
